# xmcd
#
# Track frame offsets:
#	182
#	12780
#	26137
#	39645
#	49695
#	63545
#	77865
#	92152
#	102972
#	116210
#	126525
#	138795
#	153270
#	165670
#	177700
#	190165
#	203530
#	217082
#
# Disc length: 3055
#
# Revision: 3
# Processed by: cddbd v1.5.2PL0 Copyright (c) Steve Scherf et al.
# Submitted via: CDex 1.50Beta7
# Normalized: r2:TRMNUM
#
DISCID=030bed12
DTITLE=Dean Martin - Dean Martin
DYEAR=1996
DGENRE=Easy Listening
TTITLE0=Everybody Loves Somebody
TTITLE1=Volare
TTITLE2=Rio Bravo
TTITLE3=Memories Are Made Of This
TTITLE4=That's Amore
TTITLE5=My Heart Cries For You
TTITLE6=I'm Yours
TTITLE7=Innamorata
TTITLE8=Lullaby
TTITLE9=Buona Sera
TTITLE10=Take This Chains From My Heart
TTITLE11=Release Me
TTITLE12=Return To Me
TTITLE13=(Sway) Quien Sera
TTITLE14=Write To Me From Naples
TTITLE15=Crying Time
TTITLE16=When You're Smiling
TTITLE17=(Angel Baby) Valentino
EXTD=YEAR: 1996
EXTT0=
EXTT1=
EXTT2=
EXTT3=
EXTT4=
EXTT5=
EXTT6=
EXTT7=
EXTT8=
EXTT9=
EXTT10=
EXTT11=
EXTT12=
EXTT13=
EXTT14=
EXTT15=
EXTT16=
EXTT17=
PLAYORDER=
